<svg width="47" height="47" viewBox="0 0 47 47" fill="none" xmlns="http://www.w3.org/2000/svg">
<circle cx="23.5" cy="23.5" r="23.5" fill="#E6AF21"/>
<circle cx="23.5002" cy="23.4999" r="15.6667" fill="#FFE663"/>
<path d="M24.0798 32.0146C22.469 32.0146 21.0857 31.6603 19.9301 30.9518C18.7815 30.2433 17.8955 29.2647 17.2722 28.0161C16.6558 26.7604 16.3477 25.3154 16.3477 23.6809C16.3477 22.0394 16.6628 20.5908 17.2932 19.3352C17.9235 18.0725 18.813 17.0904 19.9616 16.3889C21.1172 15.6804 22.483 15.3262 24.0588 15.3262C25.3685 15.3262 26.5277 15.5682 27.5362 16.0522C28.5518 16.5292 29.3607 17.2062 29.963 18.083C30.5654 18.9529 30.9085 19.97 30.9926 21.1345H27.3576C27.2105 20.3558 26.8603 19.707 26.307 19.1879C25.7608 18.6617 25.0289 18.3987 24.1114 18.3987C23.3339 18.3987 22.6511 18.6091 22.0628 19.03C21.4744 19.4439 21.0157 20.0402 20.6865 20.8188C20.3643 21.5975 20.2032 22.5305 20.2032 23.6178C20.2032 24.7191 20.3643 25.6661 20.6865 26.4588C21.0087 27.2445 21.4604 27.8512 22.0417 28.2792C22.6301 28.7 23.3199 28.9105 24.1114 28.9105C24.6717 28.9105 25.1724 28.8053 25.6137 28.5948C26.0619 28.3774 26.4366 28.0652 26.7378 27.6583C27.0389 27.2515 27.2456 26.7569 27.3576 26.1747H30.9926C30.9015 27.3181 30.5654 28.3318 29.984 29.2156C29.4027 30.0925 28.6113 30.78 27.6098 31.278C26.6082 31.7691 25.4316 32.0146 24.0798 32.0146Z" fill="#E6AF21"/>
</svg>
